<svg id="visual" viewBox="0 0 900 600" width="900" height="600" xmlns="http://www.w3.org/2000/svg" xmlns:xlink="http://www.w3.org/1999/xlink" version="1.1"><rect width="900" height="600" fill="#001829"></rect><g><g transform="translate(473 306)"><path d="M0 -45.8L39.6 -22.9L39.6 22.9L0 45.8L-39.6 22.9L-39.6 -22.9Z" fill="none" stroke="#F7770F" stroke-width="2"></path></g><g transform="translate(319 62)"><path d="M0 -15L13 -7.5L13 7.5L0 15L-13 7.5L-13 -7.5Z" fill="none" stroke="#F7770F" stroke-width="2"></path></g><g transform="translate(699 118)"><path d="M0 -31L26.8 -15.5L26.8 15.5L0 31L-26.8 15.5L-26.8 -15.5Z" fill="none" stroke="#F7770F" stroke-width="2"></path></g><g transform="translate(226 358)"><path d="M0 -38L32.9 -19L32.9 19L0 38L-32.9 19L-32.9 -19Z" stroke="#F7770F" fill="none" stroke-width="2"></path></g><g transform="translate(244 123)"><path d="M0 -40L34.6 -20L34.6 20L0 40L-34.6 20L-34.6 -20Z" stroke="#F7770F" fill="none" stroke-width="2"></path></g><g transform="translate(835 204)"><path d="M0 -22L19.1 -11L19.1 11L0 22L-19.1 11L-19.1 -11Z" stroke="#F7770F" fill="none" stroke-width="2"></path></g><g transform="translate(811 450)"><path d="M0 -28L24.2 -14L24.2 14L0 28L-24.2 14L-24.2 -14Z" stroke="#F7770F" fill="none" stroke-width="2"></path></g><g transform="translate(426 545)"><path d="M0 -43L37.2 -21.5L37.2 21.5L0 43L-37.2 21.5L-37.2 -21.5Z" stroke="#F7770F" fill="none" stroke-width="2"></path></g><g transform="translate(672 444)"><path d="M0 -31L26.8 -15.5L26.8 15.5L0 31L-26.8 15.5L-26.8 -15.5Z" stroke="#F7770F" fill="none" stroke-width="2"></path></g><g transform="translate(48 59)"><path d="M0 -19L16.5 -9.5L16.5 9.5L0 19L-16.5 9.5L-16.5 -9.5Z" stroke="#F7770F" fill="none" stroke-width="2"></path></g><g transform="translate(421 219)"><path d="M0 -14L12.1 -7L12.1 7L0 14L-12.1 7L-12.1 -7Z" stroke="#F7770F" fill="none" stroke-width="2"></path></g><g transform="translate(342 356)"><path d="M0 -22L19.1 -11L19.1 11L0 22L-19.1 11L-19.1 -11Z" stroke="#F7770F" fill="none" stroke-width="2"></path></g><g transform="translate(519 212)"><path d="M0 -41L35.5 -20.5L35.5 20.5L0 41L-35.5 20.5L-35.5 -20.5Z" stroke="#F7770F" fill="none" stroke-width="2"></path></g><g transform="translate(302 240)"><path d="M0 -5L4.3 -2.5L4.3 2.5L0 5L-4.3 2.5L-4.3 -2.5Z" stroke="#F7770F" fill="none" stroke-width="2"></path></g></g></svg>