<svg id="visual" viewBox="0 0 900 600" width="900" height="600" xmlns="http://www.w3.org/2000/svg" xmlns:xlink="http://www.w3.org/1999/xlink" version="1.1"><rect x="0" y="0" width="900" height="600" fill="#4f575f"></rect><path d="M0 124L21.5 132.2C43 140.3 86 156.7 128.8 166C171.7 175.3 214.3 177.7 257.2 161.8C300 146 343 112 385.8 104C428.7 96 471.3 114 514.2 129.3C557 144.7 600 157.3 642.8 152.3C685.7 147.3 728.3 124.7 771.2 110.5C814 96.3 857 90.7 878.5 87.8L900 85L900 0L878.5 0C857 0 814 0 771.2 0C728.3 0 685.7 0 642.8 0C600 0 557 0 514.2 0C471.3 0 428.7 0 385.8 0C343 0 300 0 257.2 0C214.3 0 171.7 0 128.8 0C86 0 43 0 21.5 0L0 0Z" fill="#12161a" stroke-linecap="round" stroke-linejoin="miter"></path></svg>